<?xml version="1.0" encoding="UTF-8"?>
<!-- Generated by Pixelmator Pro 3.7 -->
<svg width="1024" height="1024" viewBox="0 0 1024 1024" xmlns="http://www.w3.org/2000/svg">
    <g id="Shield">
        <path id="Path" fill="#d8e1ef" stroke="none" d="M 950.850037 146.284973 C 640.361328 146.284973 542.716492 16.823242 541.985046 15.726135 C 535.163879 5.893555 523.963684 0.020203 511.996765 0.000549 L 511.996765 0.000549 C 500.096985 -0.063477 488.910217 5.666443 482.008453 15.360413 C 482.008453 15.360413 383.632172 146.284973 73.143501 146.284973 C 52.945835 146.284973 36.572395 162.658447 36.572395 182.856079 L 36.572395 503.218933 C 36.572395 841.501648 296.592926 942.072205 451.654449 1002.780212 L 498.099731 1021.065796 C 506.951385 1024.978027 517.042114 1024.978027 525.893738 1021.065796 L 572.33905 1002.780212 C 727.400513 942.437927 987.421143 841.135986 987.421143 503.218933 L 987.421143 182.856079 C 987.421143 162.658447 971.047668 146.284973 950.850037 146.284973 Z"/>
        <path id="path1" fill="#0593ff" stroke="none" d="M 987.421143 182.856079 L 987.421143 503.218933 C 987.421143 841.501648 727.400513 942.072205 572.33905 1002.780212 L 525.893738 1021.065796 C 521.49707 1022.939697 516.775818 1023.933716 511.996765 1023.991455 L 511.996765 0.000549 L 511.996765 0.000549 C 523.834167 0.138916 534.872375 5.998718 541.619324 15.726135 C 541.619324 15.726135 640.361328 146.284973 950.850037 146.284973 C 971.047668 146.284973 987.421143 162.658447 987.421143 182.856079 Z"/>
    </g>
</svg>
